{"title":"Nuit et jour (Chantal Akerman, 1991) DVDRip Xvid Ac3","uid":12238110,"size":997359616,"categoryP":"video","categoryS":"movies","magnet":"?xt=urn:btih:2697b8350a86ca078f6a317fdb67bfa607f6419b&amp;dn=Nuit+et+jour+%28Chantal+Akerman%2C+1991%29+DVDRip+Xvid+Ac3&amp;tr=udp%3A%2F%2Ftracker.openbittorrent.com%3A80&amp;tr=udp%3A%2F%2Fopen.demonii.com%3A1337&amp;tr=udp%3A%2F%2Ftracker.coppersurfer.tk%3A6969&amp;tr=udp%3A%2F%2Fexodus.desync.com%3A6969","seeders":4,"leechers":0,"uploader":"noriegaRJ","files":1,"time":1439706340,"description":"Title: Nuit et jour aka Night and Day\n\nRelease: Nuit et jour (Chantal Akerman, 1991) DVDRip Xvid Ac3\n\n\nIMDB Link:                                                    &lt;a href=&quot;\nhttp://www.imdb.com/title/tt0102566/&quot; rel=&quot;nofollow&quot; target=&quot;_NEW&quot;&gt;\nhttp://www.imdb.com/title/tt0102566/&lt;/a&gt;\n\n\nPlot: Jack and Julie live in a bare flat in Paris. At night, Jack drives a taxi while Julie wanders around the city, and in the day they make love. One day Julie meets Joseph, the daytime driver of the taxi, and soon Julie is spending her nights with Joseph and her days with Jack.\n\n\n\nGeneral\nComplete name                            : Nuit et jour (Chantal Akerman, 1991) DVDRip Xvid Ac3\nFormat                                   : AVI\nFormat/Info                              : Audio Video Interleave\nFile size                                : 951 MiB\nDuration                                 : 1h 31mn\nOverall bit rate                         : 1 450 Kbps\nWriting application                      : VirtualDubMod 1.5.4.1 (build 2066/release)\nWriting library                          : VirtualDubMod build 2066/release\n\nVideo\nID                                       : 0\nFormat                                   : MPEG-4 Visual\nFormat profile                           : Advanced Simple@L5\nFormat settings, BVOP                    : 2\nFormat settings, QPel                    : No\nFormat settings, GMC                     : No warppoints\nFormat settings, Matrix                  : Default (MPEG)\nCodec ID                                 : XVID\nCodec ID/Hint                            : XviD\nDuration                                 : 1h 31mn\nBit rate                                 : 1 248 Kbps\nWidth                                    : 640 pixels\nHeight                                   : 400 pixels\nDisplay aspect ratio                     : 16:10\nFrame rate                               : 25.000 fps\nColor space                              : YUV\nChroma subsampling                       : 4:2:0\nBit depth                                : 8 bits\nScan type                                : Progressive\nCompression mode                         : Lossy\nBits/(Pixel*Frame)                       : 0.195\nStream size                              : 819 MiB (86%)\nWriting library                          : XviD 1.2.0SMP (UTC 2006-01-08)\n\nAudio\nID                                       : 1\nFormat                                   : AC-3\nFormat/Info                              : Audio Coding 3\nMode extension                           : CM (complete main)\nFormat settings, Endianness              : Big\nCodec ID                                 : 2000\nDuration                                 : 1h 31mn\nBit rate mode                            : Constant\nBit rate                                 : 192 Kbps\nChannel count                            : 2 channels\nChannel positions                        : Front: L R\nSampling rate                            : 48.0 KHz\nBit depth                                : 16 bits\nCompression mode                         : Lossy\nStream size                              : 126 MiB (13%)\nAlignment                                : Split accross interleaves\nInterleave, duration                     : 40 ms (1.00 video frame)\nInterleave, preload duration             : 500 ms\n\n\n\n\nThanks to those helping me seed. Leechers remember, the community depends on you. If nobody shares, the freebies go away. Remember, the only reason you can download this free movie is because others are generous enough to keep sharing it with you. If nobody shares, everybody loses, so even if its for an extra hour or two after you get it, remember, others want to see it too, and they can't without you.\n\n\nSEE MY OTHERS UPLOADS:                                                                            &lt;a href=&quot;\nhttp://thepiratebay.se/user/noriegaRJ&quot; rel=&quot;nofollow&quot; target=&quot;_NEW&quot;&gt;\nhttp://thepiratebay.se/user/noriegaRJ&lt;/a&gt;\n\nAND SEE THIS ANOTHERS UPLOADS FROM &quot;HORiZON-ArtSubs&quot;:                            &lt;a href=&quot;\nhttp://thepiratebay.se/user/artsubs&quot; rel=&quot;nofollow&quot; target=&quot;_NEW&quot;&gt;\nhttp://thepiratebay.se/user/artsubs&lt;/a&gt;                            &lt;a href=&quot;\nhttp://thepiratebay.se/user/lletaif&quot; rel=&quot;nofollow&quot; target=&quot;_NEW&quot;&gt;\nhttp://thepiratebay.se/user/lletaif&lt;/a&gt;","torrent":{"xt":"urn:btih:2697b8350a86ca078f6a317fdb67bfa607f6419b","amp;dn":"Nuit+et+jour+%28Chantal+Akerman%2C+1991%29+DVDRip+Xvid+Ac3","amp;tr":["udp%3A%2F%2Ftracker.openbittorrent.com%3A80","udp%3A%2F%2Fopen.demonii.com%3A1337","udp%3A%2F%2Ftracker.coppersurfer.tk%3A6969","udp%3A%2F%2Fexodus.desync.com%3A6969"],"infoHash":"2697b8350a86ca078f6a317fdb67bfa607f6419b","infoHashBuffer":{"type":"Buffer","data":[38,151,184,53,10,134,202,7,143,106,49,127,219,103,191,166,7,246,65,155]},"announce":[],"urlList":[]}}